<?xml version="1.0" encoding="UTF-8" standalone="no"?>
<!DOCTYPE svg PUBLIC "-//W3C//DTD SVG 1.1//EN"
 "http://www.w3.org/Graphics/SVG/1.1/DTD/svg11.dtd">
<!-- Generated by graphviz version 2.48.0 (0)
 -->
<!-- Pages: 1 -->
<svg width="600pt" height="116pt"
 viewBox="0.00 0.00 600.44 116.00" xmlns="http://www.w3.org/2000/svg" xmlns:xlink="http://www.w3.org/1999/xlink">
<g id="graph0" class="graph" transform="scale(1 1) rotate(0) translate(4 112)">
<polygon fill="white" stroke="transparent" points="-4,4 -4,-112 596.44,-112 596.44,4 -4,4"/>
<!-- C -->
<g id="node1" class="node">
<title>C</title>
<ellipse fill="none" stroke="black" cx="63" cy="-90" rx="27" ry="18"/>
<text text-anchor="middle" x="63" y="-86.3" font-family="Times,serif" font-size="14.00">C</text>
</g>
<!-- A -->
<g id="node2" class="node">
<title>A</title>
<ellipse fill="none" stroke="black" cx="27" cy="-18" rx="27" ry="18"/>
<text text-anchor="middle" x="27" y="-14.3" font-family="Times,serif" font-size="14.00">A</text>
</g>
<!-- C&#45;&gt;A -->
<g id="edge1" class="edge">
<title>C&#45;&gt;A</title>
<path fill="none" stroke="black" d="M54.65,-72.76C50.29,-64.28 44.85,-53.71 39.96,-44.2"/>
<polygon fill="black" stroke="black" points="42.99,-42.44 35.3,-35.15 36.77,-45.64 42.99,-42.44"/>
</g>
<!-- B -->
<g id="node3" class="node">
<title>B</title>
<ellipse fill="none" stroke="black" cx="99" cy="-18" rx="27" ry="18"/>
<text text-anchor="middle" x="99" y="-14.3" font-family="Times,serif" font-size="14.00">B</text>
</g>
<!-- C&#45;&gt;B -->
<g id="edge2" class="edge">
<title>C&#45;&gt;B</title>
<path fill="none" stroke="black" d="M71.35,-72.76C75.71,-64.28 81.15,-53.71 86.04,-44.2"/>
<polygon fill="black" stroke="black" points="89.23,-45.64 90.7,-35.15 83.01,-42.44 89.23,-45.64"/>
</g>
<!-- X -->
<g id="node4" class="node">
<title>X</title>
<ellipse fill="none" stroke="red" cx="207" cy="-90" rx="27" ry="18"/>
<text text-anchor="middle" x="207" y="-86.3" font-family="Times,serif" font-size="14.00">X</text>
</g>
<!-- Y -->
<g id="node5" class="node">
<title>Y</title>
<ellipse fill="none" stroke="black" cx="171" cy="-18" rx="27" ry="18"/>
<text text-anchor="middle" x="171" y="-14.3" font-family="Times,serif" font-size="14.00">Y</text>
</g>
<!-- X&#45;&gt;Y -->
<g id="edge3" class="edge">
<title>X&#45;&gt;Y</title>
<path fill="none" stroke="black" d="M198.65,-72.76C194.29,-64.28 188.85,-53.71 183.96,-44.2"/>
<polygon fill="black" stroke="black" points="186.99,-42.44 179.3,-35.15 180.77,-45.64 186.99,-42.44"/>
</g>
<!-- Z -->
<g id="node6" class="node">
<title>Z</title>
<ellipse fill="none" stroke="black" cx="243" cy="-18" rx="27" ry="18"/>
<text text-anchor="middle" x="243" y="-14.3" font-family="Times,serif" font-size="14.00">Z</text>
</g>
<!-- X&#45;&gt;Z -->
<g id="edge4" class="edge">
<title>X&#45;&gt;Z</title>
<path fill="none" stroke="black" d="M215.35,-72.76C219.71,-64.28 225.15,-53.71 230.04,-44.2"/>
<polygon fill="black" stroke="black" points="233.23,-45.64 234.7,-35.15 227.01,-42.44 233.23,-45.64"/>
</g>
<!-- statistics -->
<g id="node7" class="node">
<title>statistics</title>
<ellipse fill="none" stroke="black" cx="438" cy="-90" rx="42.49" ry="18"/>
<text text-anchor="middle" x="438" y="-86.3" font-family="Times,serif" font-size="14.00">statistics</text>
</g>
<!-- causal inference -->
<g id="node8" class="node">
<title>causal inference</title>
<ellipse fill="none" stroke="black" cx="358" cy="-18" rx="69.59" ry="18"/>
<text text-anchor="middle" x="358" y="-14.3" font-family="Times,serif" font-size="14.00">causal inference</text>
</g>
<!-- statistics&#45;&gt;causal inference -->
<g id="edge5" class="edge">
<title>statistics&#45;&gt;causal inference</title>
<path fill="none" stroke="black" d="M420.25,-73.46C409.77,-64.3 396.32,-52.53 384.6,-42.27"/>
<polygon fill="black" stroke="black" points="386.65,-39.42 376.82,-35.47 382.04,-44.69 386.65,-39.42"/>
</g>
<!-- machine learning -->
<g id="node9" class="node">
<title>machine learning</title>
<ellipse fill="none" stroke="black" cx="519" cy="-18" rx="73.39" ry="18"/>
<text text-anchor="middle" x="519" y="-14.3" font-family="Times,serif" font-size="14.00">machine learning</text>
</g>
<!-- statistics&#45;&gt;machine learning -->
<g id="edge6" class="edge">
<title>statistics&#45;&gt;machine learning</title>
<path fill="none" stroke="black" d="M455.98,-73.46C466.58,-64.3 480.2,-52.53 492.07,-42.27"/>
<polygon fill="black" stroke="black" points="494.67,-44.65 499.95,-35.47 490.09,-39.36 494.67,-44.65"/>
</g>
</g>
</svg>