<?xml version="1.0" encoding="UTF-8" standalone="no"?>
<!DOCTYPE svg PUBLIC "-//W3C//DTD SVG 1.1//EN"
 "http://www.w3.org/Graphics/SVG/1.1/DTD/svg11.dtd">
<!-- Generated by graphviz version 2.48.0 (0)
 -->
<!-- Pages: 1 -->
<svg width="219pt" height="188pt"
 viewBox="0.00 0.00 219.20 188.00" xmlns="http://www.w3.org/2000/svg" xmlns:xlink="http://www.w3.org/1999/xlink">
<g id="graph0" class="graph" transform="scale(1 1) rotate(0) translate(4 184)">
<polygon fill="white" stroke="transparent" points="-4,4 -4,-184 215.2,-184 215.2,4 -4,4"/>
<!-- T -->
<g id="node1" class="node">
<title>T</title>
<ellipse fill="none" stroke="black" cx="38" cy="-162" rx="27" ry="18"/>
<text text-anchor="middle" x="38" y="-158.3" font-family="Times,serif" font-size="14.00">T</text>
</g>
<!-- X -->
<g id="node2" class="node">
<title>X</title>
<ellipse fill="none" stroke="red" cx="27" cy="-18" rx="27" ry="18"/>
<text text-anchor="middle" x="27" y="-14.3" font-family="Times,serif" font-size="14.00">X</text>
</g>
<!-- T&#45;&gt;X -->
<g id="edge1" class="edge">
<title>T&#45;&gt;X</title>
<path fill="none" stroke="black" d="M27.76,-145.02C21.88,-134.86 15.06,-121.18 12,-108 7.14,-87.07 11.79,-63.04 17.15,-45.22"/>
<polygon fill="black" stroke="black" points="20.55,-46.12 20.33,-35.52 13.89,-43.94 20.55,-46.12"/>
</g>
<!-- Y -->
<g id="node3" class="node">
<title>Y</title>
<ellipse fill="none" stroke="black" cx="48" cy="-90" rx="27" ry="18"/>
<text text-anchor="middle" x="48" y="-86.3" font-family="Times,serif" font-size="14.00">Y</text>
</g>
<!-- T&#45;&gt;Y -->
<g id="edge2" class="edge">
<title>T&#45;&gt;Y</title>
<path fill="none" stroke="black" d="M40.42,-144.05C41.52,-136.35 42.85,-127.03 44.09,-118.36"/>
<polygon fill="black" stroke="black" points="47.58,-118.67 45.53,-108.28 40.65,-117.68 47.58,-118.67"/>
</g>
<!-- Y&#45;&gt;X -->
<g id="edge3" class="edge">
<title>Y&#45;&gt;X</title>
<path fill="none" stroke="black" d="M42.92,-72.05C40.52,-64.06 37.6,-54.33 34.92,-45.4"/>
<polygon fill="black" stroke="black" points="38.26,-44.36 32.04,-35.79 31.56,-46.37 38.26,-44.36"/>
</g>
<!-- Educ -->
<g id="node4" class="node">
<title>Educ</title>
<ellipse fill="none" stroke="black" cx="130" cy="-162" rx="29.5" ry="18"/>
<text text-anchor="middle" x="130" y="-158.3" font-family="Times,serif" font-size="14.00">Educ</text>
</g>
<!-- Investments -->
<g id="node5" class="node">
<title>Investments</title>
<ellipse fill="none" stroke="black" cx="141" cy="-18" rx="54.69" ry="18"/>
<text text-anchor="middle" x="141" y="-14.3" font-family="Times,serif" font-size="14.00">Investments</text>
</g>
<!-- Educ&#45;&gt;Investments -->
<g id="edge4" class="edge">
<title>Educ&#45;&gt;Investments</title>
<path fill="none" stroke="black" d="M131.33,-143.87C133.2,-119.67 136.65,-75.21 138.88,-46.39"/>
<polygon fill="black" stroke="black" points="142.39,-46.43 139.67,-36.19 135.41,-45.89 142.39,-46.43"/>
</g>
<!-- Wage -->
<g id="node6" class="node">
<title>Wage</title>
<ellipse fill="none" stroke="black" cx="180" cy="-90" rx="31.4" ry="18"/>
<text text-anchor="middle" x="180" y="-86.3" font-family="Times,serif" font-size="14.00">Wage</text>
</g>
<!-- Educ&#45;&gt;Wage -->
<g id="edge5" class="edge">
<title>Educ&#45;&gt;Wage</title>
<path fill="none" stroke="black" d="M141.35,-145.12C147.67,-136.26 155.69,-125.04 162.77,-115.12"/>
<polygon fill="black" stroke="black" points="165.73,-116.99 168.7,-106.82 160.04,-112.92 165.73,-116.99"/>
</g>
<!-- Wage&#45;&gt;Investments -->
<g id="edge6" class="edge">
<title>Wage&#45;&gt;Investments</title>
<path fill="none" stroke="black" d="M170.95,-72.76C166.36,-64.53 160.68,-54.32 155.49,-45.02"/>
<polygon fill="black" stroke="black" points="158.47,-43.16 150.54,-36.12 152.35,-46.56 158.47,-43.16"/>
</g>
</g>
</svg>