<?xml version="1.0" encoding="UTF-8" standalone="no"?>
<!DOCTYPE svg PUBLIC "-//W3C//DTD SVG 1.1//EN"
 "http://www.w3.org/Graphics/SVG/1.1/DTD/svg11.dtd">
<!-- Generated by graphviz version 2.49.0 (20210828.1703)
 -->
<!-- Pages: 1 -->
<svg width="255pt" height="188pt"
 viewBox="0.00 0.00 254.99 188.00" xmlns="http://www.w3.org/2000/svg" xmlns:xlink="http://www.w3.org/1999/xlink">
<g id="graph0" class="graph" transform="scale(1 1) rotate(0) translate(4 184)">
<polygon fill="white" stroke="transparent" points="-4,4 -4,-184 250.99,-184 250.99,4 -4,4"/>
<!-- push assigned -->
<g id="node1" class="node">
<title>push assigned</title>
<ellipse fill="none" stroke="black" cx="61.74" cy="-162" rx="61.99" ry="18"/>
<text text-anchor="middle" x="61.74" y="-158.3" font-family="Times New Roman,serif" font-size="14.00">push assigned</text>
</g>
<!-- push delivered -->
<g id="node2" class="node">
<title>push delivered</title>
<ellipse fill="none" stroke="black" cx="132.74" cy="-90" rx="63.89" ry="18"/>
<text text-anchor="middle" x="132.74" y="-86.3" font-family="Times New Roman,serif" font-size="14.00">push delivered</text>
</g>
<!-- in app purchase -->
<g id="node3" class="node">
<title>in app purchase</title>
<ellipse fill="none" stroke="black" cx="178.74" cy="-18" rx="68.49" ry="18"/>
<text text-anchor="middle" x="178.74" y="-14.3" font-family="Times New Roman,serif" font-size="14.00">in app purchase</text>
</g>
<!-- push delivered&#45;&gt;in app purchase -->
<g id="edge1" class="edge">
<title>push delivered&#45;&gt;in app purchase</title>
<path fill="none" stroke="black" d="M143.88,-72.05C149.36,-63.71 156.08,-53.49 162.15,-44.25"/>
<polygon fill="black" stroke="black" points="165.14,-46.07 167.71,-35.79 159.29,-42.22 165.14,-46.07"/>
</g>
<!-- income -->
<g id="node4" class="node">
<title>income</title>
<ellipse fill="none" stroke="blue" cx="178.74" cy="-162" rx="37.09" ry="18"/>
<text text-anchor="middle" x="178.74" y="-158.3" font-family="Times New Roman,serif" font-size="14.00">income</text>
</g>
<!-- income&#45;&gt;push delivered -->
<g id="edge3" class="edge">
<title>income&#45;&gt;push delivered</title>
<path fill="none" stroke="black" d="M167.84,-144.41C162.37,-136.08 155.61,-125.8 149.49,-116.49"/>
<polygon fill="black" stroke="black" points="152.3,-114.39 143.89,-107.96 146.45,-118.24 152.3,-114.39"/>
</g>
<!-- income&#45;&gt;in app purchase -->
<g id="edge2" class="edge">
<title>income&#45;&gt;in app purchase</title>
<path fill="none" stroke="black" d="M189.65,-144.61C195.7,-134.52 202.61,-121.05 205.74,-108 209.48,-92.44 209.48,-87.56 205.74,-72 203.5,-62.66 199.33,-53.11 194.92,-44.74"/>
<polygon fill="black" stroke="black" points="197.88,-42.87 189.93,-35.86 191.78,-46.29 197.88,-42.87"/>
</g>
</g>
</svg>