<?xml version="1.0" encoding="UTF-8" standalone="no"?>
<!DOCTYPE svg PUBLIC "-//W3C//DTD SVG 1.1//EN"
 "http://www.w3.org/Graphics/SVG/1.1/DTD/svg11.dtd">
<!-- Generated by graphviz version 2.48.0 (0)
 -->
<!-- Pages: 1 -->
<svg width="462pt" height="116pt"
 viewBox="0.00 0.00 461.85 116.00" xmlns="http://www.w3.org/2000/svg" xmlns:xlink="http://www.w3.org/1999/xlink">
<g id="graph0" class="graph" transform="scale(1 1) rotate(0) translate(4 112)">
<polygon fill="white" stroke="transparent" points="-4,4 -4,-112 457.85,-112 457.85,4 -4,4"/>
<!-- B -->
<g id="node1" class="node">
<title>B</title>
<ellipse fill="none" stroke="black" cx="27" cy="-90" rx="27" ry="18"/>
<text text-anchor="middle" x="27" y="-86.3" font-family="Times,serif" font-size="14.00">B</text>
</g>
<!-- C -->
<g id="node2" class="node">
<title>C</title>
<ellipse fill="none" stroke="black" cx="63" cy="-18" rx="27" ry="18"/>
<text text-anchor="middle" x="63" y="-14.3" font-family="Times,serif" font-size="14.00">C</text>
</g>
<!-- B&#45;&gt;C -->
<g id="edge1" class="edge">
<title>B&#45;&gt;C</title>
<path fill="none" stroke="black" d="M35.35,-72.76C39.71,-64.28 45.15,-53.71 50.04,-44.2"/>
<polygon fill="black" stroke="black" points="53.23,-45.64 54.7,-35.15 47.01,-42.44 53.23,-45.64"/>
</g>
<!-- A -->
<g id="node3" class="node">
<title>A</title>
<ellipse fill="none" stroke="black" cx="99" cy="-90" rx="27" ry="18"/>
<text text-anchor="middle" x="99" y="-86.3" font-family="Times,serif" font-size="14.00">A</text>
</g>
<!-- A&#45;&gt;C -->
<g id="edge2" class="edge">
<title>A&#45;&gt;C</title>
<path fill="none" stroke="black" d="M90.65,-72.76C86.29,-64.28 80.85,-53.71 75.96,-44.2"/>
<polygon fill="black" stroke="black" points="78.99,-42.44 71.3,-35.15 72.77,-45.64 78.99,-42.44"/>
</g>
<!-- Y -->
<g id="node4" class="node">
<title>Y</title>
<ellipse fill="none" stroke="black" cx="171" cy="-90" rx="27" ry="18"/>
<text text-anchor="middle" x="171" y="-86.3" font-family="Times,serif" font-size="14.00">Y</text>
</g>
<!-- X -->
<g id="node5" class="node">
<title>X</title>
<ellipse fill="none" stroke="red" cx="197" cy="-18" rx="27" ry="18"/>
<text text-anchor="middle" x="197" y="-14.3" font-family="Times,serif" font-size="14.00">X</text>
</g>
<!-- Y&#45;&gt;X -->
<g id="edge3" class="edge">
<title>Y&#45;&gt;X</title>
<path fill="none" stroke="black" d="M177.16,-72.41C180.16,-64.34 183.84,-54.43 187.21,-45.35"/>
<polygon fill="black" stroke="black" points="190.5,-46.55 190.7,-35.96 183.94,-44.11 190.5,-46.55"/>
</g>
<!-- Z -->
<g id="node6" class="node">
<title>Z</title>
<ellipse fill="none" stroke="black" cx="243" cy="-90" rx="27" ry="18"/>
<text text-anchor="middle" x="243" y="-86.3" font-family="Times,serif" font-size="14.00">Z</text>
</g>
<!-- Z&#45;&gt;X -->
<g id="edge4" class="edge">
<title>Z&#45;&gt;X</title>
<path fill="none" stroke="black" d="M232.56,-73.12C226.8,-64.34 219.52,-53.26 213.04,-43.42"/>
<polygon fill="black" stroke="black" points="215.81,-41.26 207.4,-34.82 209.96,-45.1 215.81,-41.26"/>
</g>
<!-- statistics -->
<g id="node7" class="node">
<title>statistics</title>
<ellipse fill="none" stroke="black" cx="330" cy="-90" rx="42.49" ry="18"/>
<text text-anchor="middle" x="330" y="-86.3" font-family="Times,serif" font-size="14.00">statistics</text>
</g>
<!-- job promotion -->
<g id="node8" class="node">
<title>job promotion</title>
<ellipse fill="none" stroke="black" cx="376" cy="-18" rx="62.29" ry="18"/>
<text text-anchor="middle" x="376" y="-14.3" font-family="Times,serif" font-size="14.00">job promotion</text>
</g>
<!-- statistics&#45;&gt;job promotion -->
<g id="edge5" class="edge">
<title>statistics&#45;&gt;job promotion</title>
<path fill="none" stroke="black" d="M340.9,-72.41C346.38,-64.08 353.13,-53.8 359.25,-44.49"/>
<polygon fill="black" stroke="black" points="362.29,-46.24 364.86,-35.96 356.44,-42.39 362.29,-46.24"/>
</g>
<!-- flatter -->
<g id="node9" class="node">
<title>flatter</title>
<ellipse fill="none" stroke="black" cx="422" cy="-90" rx="31.7" ry="18"/>
<text text-anchor="middle" x="422" y="-86.3" font-family="Times,serif" font-size="14.00">flatter</text>
</g>
<!-- flatter&#45;&gt;job promotion -->
<g id="edge6" class="edge">
<title>flatter&#45;&gt;job promotion</title>
<path fill="none" stroke="black" d="M411.33,-72.76C405.86,-64.44 399.07,-54.1 392.91,-44.73"/>
<polygon fill="black" stroke="black" points="395.67,-42.56 387.25,-36.12 389.82,-46.4 395.67,-42.56"/>
</g>
</g>
</svg>