<?xml version="1.0" encoding="UTF-8" standalone="no"?>
<!DOCTYPE svg PUBLIC "-//W3C//DTD SVG 1.1//EN"
 "http://www.w3.org/Graphics/SVG/1.1/DTD/svg11.dtd">
<!-- Generated by graphviz version 2.49.0 (20210828.1703)
 -->
<!-- Pages: 1 -->
<svg width="224pt" height="188pt"
 viewBox="0.00 0.00 223.79 188.00" xmlns="http://www.w3.org/2000/svg" xmlns:xlink="http://www.w3.org/1999/xlink">
<g id="graph0" class="graph" transform="scale(1 1) rotate(0) translate(4 184)">
<polygon fill="white" stroke="transparent" points="-4,4 -4,-184 219.79,-184 219.79,4 -4,4"/>
<!-- push assigned -->
<g id="node1" class="node">
<title>push assigned</title>
<ellipse fill="none" stroke="black" cx="61.74" cy="-162" rx="61.99" ry="18"/>
<text text-anchor="middle" x="61.74" y="-158.3" font-family="Times New Roman,serif" font-size="14.00">push assigned</text>
</g>
<!-- push delivered -->
<g id="node2" class="node">
<title>push delivered</title>
<ellipse fill="none" stroke="black" cx="86.74" cy="-90" rx="63.89" ry="18"/>
<text text-anchor="middle" x="86.74" y="-86.3" font-family="Times New Roman,serif" font-size="14.00">push delivered</text>
</g>
<!-- push assigned&#45;&gt;push delivered -->
<g id="edge1" class="edge">
<title>push assigned&#45;&gt;push delivered</title>
<path fill="none" stroke="black" d="M67.8,-144.05C70.61,-136.18 74.02,-126.62 77.18,-117.79"/>
<polygon fill="black" stroke="black" points="80.51,-118.87 80.57,-108.28 73.92,-116.52 80.51,-118.87"/>
</g>
<!-- in app purchase -->
<g id="node3" class="node">
<title>in app purchase</title>
<ellipse fill="none" stroke="black" cx="132.74" cy="-18" rx="68.49" ry="18"/>
<text text-anchor="middle" x="132.74" y="-14.3" font-family="Times New Roman,serif" font-size="14.00">in app purchase</text>
</g>
<!-- push delivered&#45;&gt;in app purchase -->
<g id="edge2" class="edge">
<title>push delivered&#45;&gt;in app purchase</title>
<path fill="none" stroke="black" d="M97.88,-72.05C103.36,-63.71 110.08,-53.49 116.15,-44.25"/>
<polygon fill="black" stroke="black" points="119.14,-46.07 121.71,-35.79 113.29,-42.22 119.14,-46.07"/>
</g>
<!-- income -->
<g id="node4" class="node">
<title>income</title>
<ellipse fill="none" stroke="blue" cx="178.74" cy="-162" rx="37.09" ry="18"/>
<text text-anchor="middle" x="178.74" y="-158.3" font-family="Times New Roman,serif" font-size="14.00">income</text>
</g>
<!-- income&#45;&gt;push delivered -->
<g id="edge4" class="edge">
<title>income&#45;&gt;push delivered</title>
<path fill="none" stroke="black" d="M159.68,-146.5C147.1,-136.92 130.36,-124.19 116.1,-113.33"/>
<polygon fill="black" stroke="black" points="118.11,-110.47 108.03,-107.2 113.87,-116.04 118.11,-110.47"/>
</g>
<!-- income&#45;&gt;in app purchase -->
<g id="edge3" class="edge">
<title>income&#45;&gt;in app purchase</title>
<path fill="none" stroke="black" d="M176.45,-143.91C173.7,-125.72 168.35,-96.27 159.74,-72 156.54,-62.95 152.09,-53.48 147.74,-45.09"/>
<polygon fill="black" stroke="black" points="150.75,-43.3 142.93,-36.16 144.59,-46.62 150.75,-43.3"/>
</g>
</g>
</svg>