<?xml version="1.0" encoding="UTF-8" standalone="no"?>
<!DOCTYPE svg PUBLIC "-//W3C//DTD SVG 1.1//EN"
 "http://www.w3.org/Graphics/SVG/1.1/DTD/svg11.dtd">
<!-- Generated by graphviz version 7.0.1 (20221109.1506)
 -->
<!-- Pages: 1 -->
<svg width="144pt" height="188pt"
 viewBox="0.00 0.00 144.50 188.00" xmlns="http://www.w3.org/2000/svg" xmlns:xlink="http://www.w3.org/1999/xlink">
<g id="graph0" class="graph" transform="scale(1 1) rotate(0) translate(4 184)">
<polygon fill="white" stroke="none" points="-4,4 -4,-184 140.5,-184 140.5,4 -4,4"/>
<!-- ability -->
<g id="node1" class="node">
<title>ability</title>
<ellipse fill="none" stroke="black" cx="104" cy="-162" rx="32.49" ry="18"/>
<text text-anchor="middle" x="104" y="-158.3" font-family="Times New Roman,serif" font-size="14.00">ability</text>
</g>
<!-- educ -->
<g id="node2" class="node">
<title>educ</title>
<ellipse fill="none" stroke="black" cx="47" cy="-90" rx="28.7" ry="18"/>
<text text-anchor="middle" x="47" y="-86.3" font-family="Times New Roman,serif" font-size="14.00">educ</text>
</g>
<!-- ability&#45;&gt;educ -->
<g id="edge1" class="edge">
<title>ability&#45;&gt;educ</title>
<path fill="none" stroke="black" d="M91.07,-145.12C83.82,-136.22 74.65,-124.95 66.54,-115"/>
<polygon fill="black" stroke="black" points="69.48,-113.06 60.45,-107.51 64.05,-117.48 69.48,-113.06"/>
</g>
<!-- wage -->
<g id="node3" class="node">
<title>wage</title>
<ellipse fill="none" stroke="black" cx="75" cy="-18" rx="29.5" ry="18"/>
<text text-anchor="middle" x="75" y="-14.3" font-family="Times New Roman,serif" font-size="14.00">wage</text>
</g>
<!-- ability&#45;&gt;wage -->
<g id="edge2" class="edge">
<title>ability&#45;&gt;wage</title>
<path fill="none" stroke="black" d="M100.5,-143.87C95.6,-119.88 86.64,-75.99 80.75,-47.16"/>
<polygon fill="black" stroke="black" points="84.24,-46.77 78.81,-37.67 77.39,-48.17 84.24,-46.77"/>
</g>
<!-- educ&#45;&gt;wage -->
<g id="edge3" class="edge">
<title>educ&#45;&gt;wage</title>
<path fill="none" stroke="black" d="M53.78,-72.05C56.87,-64.32 60.62,-54.96 64.09,-46.27"/>
<polygon fill="black" stroke="black" points="67.26,-47.78 67.72,-37.19 60.76,-45.18 67.26,-47.78"/>
</g>
<!-- qob -->
<g id="node4" class="node">
<title>qob</title>
<ellipse fill="none" stroke="black" cx="27" cy="-162" rx="27" ry="18"/>
<text text-anchor="middle" x="27" y="-158.3" font-family="Times New Roman,serif" font-size="14.00">qob</text>
</g>
<!-- qob&#45;&gt;educ -->
<g id="edge4" class="edge">
<title>qob&#45;&gt;educ</title>
<path fill="none" stroke="black" d="M31.84,-144.05C34,-136.49 36.61,-127.37 39.04,-118.85"/>
<polygon fill="black" stroke="black" points="42.41,-119.82 41.79,-109.24 35.67,-117.9 42.41,-119.82"/>
</g>
</g>
</svg>